<svg xmlns="http://www.w3.org/2000/svg" width="41.806" height="42.08" viewBox="0 0 41.806 42.08"><defs><style>.a{fill:#cbcbd6;}</style></defs><path class="a" d="M42.773,15.333a9.765,9.765,0,0,0-9.752-9.756q-.35,0-.707.026a12.535,12.535,0,0,0-20.889,0q-.356-.027-.707-.026a9.755,9.755,0,0,0-1.389,19.41V38.47a3.614,3.614,0,0,0,3.61,3.61H30.8a3.614,3.614,0,0,0,3.61-3.61V24.988A9.768,9.768,0,0,0,42.773,15.333ZM30.8,39.3H12.941a.844.844,0,0,1-.833-.833V24.989a9.6,9.6,0,0,0,3.817-1.41,12.465,12.465,0,0,0,11.89,0,9.6,9.6,0,0,0,3.817,1.41V38.47A.844.844,0,0,1,30.8,39.3Zm2.222-16.992a6.918,6.918,0,0,1-2.678-.534A12.5,12.5,0,0,0,33.952,15.9a1.389,1.389,0,1,0-2.676-.742,9.76,9.76,0,0,1-18.811,0,1.389,1.389,0,1,0-2.676.742A12.493,12.493,0,0,0,13.4,21.778,6.978,6.978,0,1,1,10.719,8.355a7.077,7.077,0,0,1,1.19.1,1.39,1.39,0,0,0,1.445-.689,9.76,9.76,0,0,1,17.032,0,1.389,1.389,0,0,0,1.445.689,7.076,7.076,0,0,1,1.19-.1,6.978,6.978,0,0,1,0,13.957Z" transform="translate(-0.967)"/></svg>