<svg xmlns="http://www.w3.org/2000/svg" width="93.925" height="100.099" viewBox="0 0 93.925 100.099"><defs><style>.a{fill:#cbcbd6;}</style></defs><path class="a" d="M95.869,4.163A2.438,2.438,0,0,1,99.317.715l.328.328A2.438,2.438,0,1,1,96.2,4.49l-.328-.328Zm-.328,27.149a7.051,7.051,0,1,1-7.051,7.051A7.059,7.059,0,0,1,95.541,31.312Zm0,4.876a2.175,2.175,0,1,0,2.175,2.175A2.177,2.177,0,0,0,95.541,36.188Zm11.047,30.455v2.923a6.915,6.915,0,0,1-6.907,6.907H97.65V89.619A10.493,10.493,0,0,1,87.168,100.1H32.083A10.493,10.493,0,0,1,21.6,89.619V76.474H19.57a6.915,6.915,0,0,1-6.907-6.907V66.643a6.915,6.915,0,0,1,6.907-6.907H21.6v-7.2a2.438,2.438,0,0,1,2.438-2.438H95.212a2.438,2.438,0,0,1,2.438,2.438v7.2h2.031A6.915,6.915,0,0,1,106.588,66.643ZM21.6,64.612H19.57a2.033,2.033,0,0,0-2.031,2.031v2.923A2.033,2.033,0,0,0,19.57,71.6H21.6V64.612Zm71.172-9.643h-66.3v34.65a5.611,5.611,0,0,0,5.6,5.605H87.168a5.611,5.611,0,0,0,5.605-5.605V54.969Zm8.939,11.674a2.033,2.033,0,0,0-2.031-2.031H97.65V71.6h2.031a2.033,2.033,0,0,0,2.031-2.031V66.643Zm-12.6-47.1a2.431,2.431,0,0,0,1.723-.713l.328-.328a2.438,2.438,0,1,0-3.447-3.449l-.328.328a2.438,2.438,0,0,0,1.723,4.163ZM68.908,45.272a2.438,2.438,0,0,0,4.876,0,3.493,3.493,0,1,1,6.985,0,2.438,2.438,0,0,0,4.876,0,8.369,8.369,0,1,0-16.738,0ZM23.37,41.623a2.438,2.438,0,0,1,1.812-2.934l26.486-6.262L51.2,30.45a6.915,6.915,0,0,1,5.133-8.311l2.845-.672A6.916,6.916,0,0,1,67.49,26.6l.468,1.977,26.486-6.262a2.438,2.438,0,0,1,1.122,4.745L26.3,43.435a2.435,2.435,0,0,1-2.934-1.812ZM55.947,29.328l.467,1.977,6.8-1.607-.467-1.977A2.03,2.03,0,0,0,60.3,26.211l-2.845.673a2.034,2.034,0,0,0-1.51,2.444Z" transform="translate(-12.663 -0.001)"/></svg>