<svg xmlns="http://www.w3.org/2000/svg" width="35" height="37.5" viewBox="0 0 35 37.5"><defs><style>.a{fill:#fff;}</style></defs><path class="a" d="M53.784,8.841a.972.972,0,0,0-.1-.419.928.928,0,0,0-.65-.507L36.693.095a.982.982,0,0,0-.843,0L19.346,7.986a.953.953,0,0,0-.546.823V28.651a.942.942,0,0,0,.546.855L35.851,37.4c.008,0,.008,0,.016.008a.287.287,0,0,1,.072.032c.008,0,.016.008.032.008l.072.024c.008,0,.016.008.024.008.024.008.056.008.08.016h.024c.032,0,.072.008.1.008a.464.464,0,0,0,.1-.008H36.4a.288.288,0,0,0,.08-.016c.008,0,.016-.008.024-.008l.072-.024c.008,0,.016-.008.032-.008a.287.287,0,0,0,.072-.032c.008,0,.008,0,.016-.008l16.553-7.915a.956.956,0,0,0,.546-.855V8.864C53.784,8.857,53.784,8.849,53.784,8.841ZM36.268,2,50.582,8.849l-5.272,2.525L31,4.527Zm0,13.692L21.953,8.849,28.79,5.58,43.1,12.426ZM20.726,10.376l14.579,6.973V35.023L20.726,28.05ZM37.231,35.023V17.349l6.844-3.277v4.622a.963.963,0,0,0,1.926,0V13.146l5.857-2.8V28.018Z" transform="translate(-18.8)"/></svg>