<svg xmlns="http://www.w3.org/2000/svg" width="46.159" height="30" viewBox="0 0 46.159 30"><g transform="translate(0 23.846)"><path d="M45.389,301.533H.769A.769.769,0,0,0,0,302.3a5.392,5.392,0,0,0,5.385,5.385H40.773a5.392,5.392,0,0,0,5.385-5.385A.768.768,0,0,0,45.389,301.533Zm-4.616,4.616H5.385a3.853,3.853,0,0,1-3.769-3.077H44.542A3.852,3.852,0,0,1,40.773,306.149Z" transform="translate(0 -301.533)"/></g><g transform="translate(3.077 3.843)"><g transform="translate(0 0)"><path d="M54.135,79.667a20.025,20.025,0,0,0-20,20v.769a.769.769,0,0,0,.769.769H73.368a.769.769,0,0,0,.769-.769v-.769A20.025,20.025,0,0,0,54.135,79.667Zm-18.463,20a18.463,18.463,0,0,1,36.927,0Z" transform="translate(-34.133 -79.667)"/></g></g><g transform="translate(19.454)"><path d="M217.329,39.5a.857.857,0,0,1,.853-.933h2.471a.856.856,0,0,1,.853.933l-.16,1.781a.858.858,0,0,1-.118.365,2.858,2.858,0,0,1,1.407.622,2.4,2.4,0,0,0,.237-.849l.16-1.781a2.389,2.389,0,0,0-2.38-2.6h-2.471a2.389,2.389,0,0,0-2.38,2.6l.16,1.781a2.4,2.4,0,0,0,.137.613,2.968,2.968,0,0,1,1.475-.444.867.867,0,0,1-.086-.306Z" transform="translate(-215.793 -37.034)"/></g></svg>